<svg xmlns="http://www.w3.org/2000/svg" viewBox="0 0 61.24 57.2"><defs><style>.cls-1{fill:#ffffff;}</style></defs><title>apps</title><g id="Ebene_2" data-name="Ebene 2"><g id="Icons_64x64" data-name="Icons 64x64"><g id="Application"><path class="cls-1" d="M24.77,57.19H2.61c-1.88,0-2.55-.63-2.6-2.52,0-.43,0-.86,0-1.29Q0,36.61,0,19.85a3.47,3.47,0,0,1,1.65-3.39,4.76,4.76,0,0,1,2.12-.54c8,0,16,0,23.94,0,6,0,12,0,18,0a3.49,3.49,0,0,1,3.42,1.74,4,4,0,0,1,.5,1.79q0,17.7,0,35.38a4.67,4.67,0,0,1-.42,1.68,1.3,1.3,0,0,1-1.38.73c-3.63,0-7.25,0-10.88,0Zm.12-32.43h0c-6.77,0-13.54,0-20.31,0-.63,0-1,.08-1,.86q0,14.1,0,28.21c0,.83.27,1,1.06,1q20.24,0,40.46,0c.81,0,1-.3,1-1,0-9.32,0-18.64,0-28,0-1.08,0-1.08-1.07-1.08Zm-3.52-5.29c-.27,1.73-.23,1.77,1.34,1.77,7.47,0,14.93,0,22.4,0,.7,0,1-.15,1-.91s-.39-.88-1-.87q-11.44,0-22.89,0ZM6.23,22A1.63,1.63,0,0,0,8,20.25,1.79,1.79,0,0,0,6.19,18.5a1.84,1.84,0,0,0-1.71,1.82A1.64,1.64,0,0,0,6.23,22ZM17,22c1.18,0,1.66-.87,1.77-1.77s-.91-1.68-1.81-1.69a1.68,1.68,0,0,0-1.69,1.81A1.58,1.58,0,0,0,17,22Zm-3.76-1.66a1.65,1.65,0,0,0-1.67-1.8,1.89,1.89,0,0,0-1.8,1.71A1.75,1.75,0,0,0,11.56,22,1.54,1.54,0,0,0,13.24,20.31Z"/><path class="cls-1" d="M57.66,9H15.25v3.72c0,1-.08,1.11-1.09,1.11-.59,0-1.18,0-1.77,0s-.69-.19-.69-.65c0-3.36-.06-6.72,0-10.07C11.8,1.24,13.48,0,15.64,0H27.41c9.88,0,19.77,0,29.65,0a5.74,5.74,0,0,1,2.51.62,3.17,3.17,0,0,1,1.67,3q0,17.66,0,35.3a3.88,3.88,0,0,1-.28,1.3,3.3,3.3,0,0,1-3.17,2.24c-1.82.09-3.65,0-5.48,0-.64,0-.86-.3-.84-.88a17.61,17.61,0,0,0,0-1.78c-.06-.7.27-.87.9-.87,1.48,0,3,0,4.43,0,.68,0,.94-.21.94-.93q0-14.14,0-28.29C57.7,9.58,57.67,9.35,57.66,9ZM45.36,3.65h0c-3.89,0-7.78,0-11.67,0-.62,0-.83.17-.84.82,0,.82.35,1,1.07,1,5.82,0,11.65,0,17.47,0,1.83,0,3.65,0,5.48,0a1,1,0,0,0,.75-.28,1,1,0,0,0-.91-1.5Zm-18.49.81a1.65,1.65,0,0,0,1.74,1.75,1.86,1.86,0,0,0,1.76-1.74,1.82,1.82,0,0,0-1.79-1.76A1.64,1.64,0,0,0,26.87,4.46Zm-2,0a1.6,1.6,0,0,0-1.63-1.76,1.91,1.91,0,0,0-1.9,1.76A1.91,1.91,0,0,0,23.2,6.21,1.65,1.65,0,0,0,24.86,4.47Zm-5.31,0A1.69,1.69,0,0,0,17.8,2.7a1.9,1.9,0,0,0-1.73,1.8,1.86,1.86,0,0,0,1.87,1.71A1.67,1.67,0,0,0,19.55,4.42Z"/></g></g></g></svg>