<?xml version="1.0" encoding="utf-8"?>
<!-- Generator: Adobe Illustrator 24.0.2, SVG Export Plug-In . SVG Version: 6.00 Build 0)  -->
<svg version="1.0" id="Layer_1" xmlns="http://www.w3.org/2000/svg" xmlns:xlink="http://www.w3.org/1999/xlink" x="0px" y="0px"
	 viewBox="0 0 80 59" style="enable-background:new 0 0 80 59;" xml:space="preserve">
<style type="text/css">
	.st0{fill:#00467D;}
</style>
<g>
	<path class="st0" d="M18.48,26.09c-1.51,5.12-4.21,10.58-8.1,16.37c-1.54,2.29-2.96,3.44-4.26,3.44c-1.85,0-2.88-1.57-3.19-3.97
		C1.59,31.6,14.95,5.5,21.65,7.08C24.62,7.77,19.33,23.22,18.48,26.09 M5.2,52.16c2.34,0.02,7.55-1.41,11.96-11.77
		c1.85-3.44,2.46-5.67,3.29-6.83c2.28,8.69,5.7,12.39,9.8,13.36c3.95,0.94,5.74-0.58,7.16-1.32c4.83-3.91,4.83-4.3-1.04-2.86
		c-3.38,1.11-6.6-2.3-6.95-2.62c-3.52-3.91-4.59-9.37-4.59-18.67c0-1.75,0.22-4.41,0.65-7.98c0.43-3.57,0.65-6.23,0.65-7.98
		c0-3.7-0.93-5.56-2.78-5.56c-2.78,0-7.19,5.15-13.23,15.46C4.31,25.22,0.52,35.04,0.06,41.2C-0.32,46.32,0.99,52.12,5.2,52.16"/>
	<path class="st0" d="M39.96,58.96c1.17,0,2.87-1.89,5.09-5.66c4.07-6.94,6.14-10.44,6.2-10.51c2.59-3.77,4.97-5.78,7.13-5.66
		c2.64,0.16,2.93,2.3,4.89,5.23c2.83,4.19,4.82,7.83,6.4,9.8l2.68-6.23c-1.96-2.46-1.5-1.65-4.49-5.76c-2.99-4.1-4.49-7.3-4.49-9.59
		c0-1.95,5.77-10.17,10.91-14.88c3.2-2.97,5.67-6,5.71-6.12l-1.44-1.37c-0.1-0.02-1.85,1.38-4.37,3.4
		c-6.23,4.92-11.63,13.04-12.56,13.92c-1.36-0.94-3.29-3.98-5.2-8.46c-1.91-4.48-3.14-7.44-5-8.24c-1.42,0-2.13,0.91-2.13,2.73
		c0,2.16,1.02,5.42,3.05,9.8c0.82,1.76,4.14,8.01,3.52,9.82c-0.86,2.51-9.3,9.84-10.27,11.3c-4.81,5.86-7.22,10.44-7.22,13.74
		C38.39,58.05,38.91,58.96,39.96,58.96"/>
</g>
</svg>
