<?xml version="1.0" encoding="utf-8"?>
<!-- Generator: Adobe Illustrator 24.0.2, SVG Export Plug-In . SVG Version: 6.00 Build 0)  -->
<svg version="1.0" id="Layer_1" xmlns="http://www.w3.org/2000/svg" xmlns:xlink="http://www.w3.org/1999/xlink" x="0px" y="0px"
	 viewBox="0 0 79 80" style="enable-background:new 0 0 79 80;" xml:space="preserve">
<style type="text/css">
	.st0{fill:#E64133;}
	.st1{fill:#32A653;}
	.st2{fill:#3E82F0;}
	.st3{fill:#F8BA00;}
</style>
<g>
	<path class="st0" d="M4.29,22.04c2.25-4.47,5.24-8.39,8.98-11.72c5.43-4.84,11.69-8.07,18.86-9.49c4.27-0.84,8.56-1.05,12.89-0.57
		c8.37,0.92,15.63,4.24,21.88,9.81c0.32,0.28,0.34,0.42,0.02,0.74c-3.65,3.6-7.28,7.21-10.91,10.83c-0.25,0.25-0.38,0.26-0.65,0.02
		c-3.72-3.37-8.1-5.24-13.12-5.62c-11.65-0.87-20.91,6.46-24.32,15.96c-0.05,0.14-0.1,0.27-0.16,0.41
		c-0.08-0.05-0.17-0.09-0.25-0.15c-1.99-1.53-3.99-3.07-5.98-4.6C9.13,25.77,6.71,23.91,4.29,22.04z"/>
	<path class="st1" d="M17.79,47.61c0.91,2.55,2.11,4.94,3.79,7.08c4.06,5.16,9.3,8.39,15.9,9.15c5.53,0.64,10.82-0.25,15.68-3.11
		c0.27-0.16,0.53-0.32,0.8-0.48c1.88,1.44,3.76,2.89,5.64,4.33c2.46,1.89,4.93,3.78,7.39,5.68c-1.76,1.71-3.74,3.13-5.85,4.37
		c-4.49,2.64-9.34,4.25-14.51,4.94c-7.56,1.01-14.92,0.29-21.96-2.69C15.68,73.07,8.95,66.79,4.41,58.2
		c-0.05-0.09-0.07-0.18-0.11-0.27c0.13-0.07,0.26-0.14,0.38-0.22c1.23-0.95,2.46-1.9,3.69-2.85C11.51,52.44,14.65,50.03,17.79,47.61
		z"/>
	<path class="st2" d="M66.99,70.26c-2.46-1.89-4.93-3.78-7.39-5.68c-1.88-1.44-3.76-2.89-5.64-4.33c1.26-0.94,2.49-1.92,3.55-3.09
		c2.22-2.44,3.62-5.29,4.35-8.48c0.11-0.46-0.11-0.46-0.45-0.46c-6.83,0.01-13.67,0-20.5,0.02c-0.51,0-0.64-0.13-0.64-0.63
		c0.02-4.79,0.02-9.59,0-14.38c0-0.43,0.1-0.54,0.54-0.54c12.3,0.01,24.61,0.01,36.91,0.01c0.32,0,0.55,0,0.61,0.42
		c1.21,7.58,0.8,15.05-1.7,22.34c-1.84,5.39-4.78,10.14-8.89,14.13C67.51,69.81,67.24,70.03,66.99,70.26z"/>
	<path class="st3" d="M17.79,47.61c-3.14,2.41-6.28,4.82-9.42,7.24c-1.23,0.95-2.46,1.9-3.69,2.85c-0.11,0.09-0.25,0.15-0.38,0.22
		c-1.24-2.31-2.14-4.75-2.84-7.26c-1.21-4.32-1.67-8.72-1.38-13.2c0.35-5.42,1.72-10.58,4.21-15.43c2.42,1.87,4.84,3.73,7.25,5.6
		c1.99,1.54,3.99,3.07,5.98,4.6c0.08,0.06,0.17,0.1,0.25,0.15c-0.58,1.84-1,3.71-1.16,5.63c-0.26,3.13,0.11,6.18,1.05,9.17
		C17.71,47.33,17.75,47.47,17.79,47.61z"/>
</g>
</svg>
