<svg xmlns="http://www.w3.org/2000/svg" xmlns:xlink="http://www.w3.org/1999/xlink" viewBox="0 0 724.03 200.55"><defs><clipPath id="clip-path"><rect width="724.03" height="200.55" style="fill:none"/></clipPath></defs><title>Asset 1</title><g id="Layer_2" data-name="Layer 2"><g id="Layer_1-2" data-name="Layer 1"><g style="clip-path:url(#clip-path)"><path d="M49.14,113.17q-6,20.43-21.53,43.52-6.15,9.13-11.32,9.14c-4.92,0-7.64-4.17-8.48-10.55C4.23,127.83,39.73,58.43,57.57,62.62c7.89,1.85-6.18,42.93-8.43,50.55M13.83,182.48c6.22.06,20.06-3.76,31.79-31.3,4.92-9.14,6.55-15.06,8.76-18.17,6.06,23.1,15.15,32.93,26.05,35.53,10.51,2.5,15.25-1.55,19-3.52,12.83-10.4,12.83-11.44-2.78-7.61-9,3-17.56-6.13-18.47-7C68.85,140.07,66,125.53,66,100.82A194,194,0,0,1,67.71,79.6a194.16,194.16,0,0,0,1.72-21.23q0-14.76-7.38-14.77Q51,43.6,26.87,84.7C11.45,110.85,1.39,137,.17,153.33c-1,13.63,2.45,29,13.66,29.15" style="fill:#00467d"/><path d="M687.44,138.75c9.81.84,15.57-10.58,19-33.64,4.4-22.09,6.14-35.62,8-44.81,3.45-18.2,9.15-56,9.59-60.3,0,0-14.43,2.56-14.54,3.08-.79,3.84-6.89,33.68-15.08,63Q683.46,105,681.78,128.29q-.72,9.92,5.66,10.46" style="fill:#00467d"/><path d="M276.14,54.19q0-8.86-9.35-14.51a31.06,31.06,0,0,0-16.73-5.1q-6.65,0-6.64,9.4,0,10.22,32.72,10.21M235.81,175.68c6.63-1.49,16.1-8.16,18.51-9.48,5.52-4.19,11.71-8.78,16.3-13.08,0,0,14.17-13.57,15.8-16l-4.08-8.47a245.87,245.87,0,0,1-32.07,23.65c-5.25,3.25-14.42,11-17.36-1-2.21-9-.77-18.25,6.11-38.22,3.31-10.83,7.54-21,6.12-22-2.65-1.84-8.92,2.78-19.62,26.8-4.08,9.74-11.39,26.06-11.39,36.36,0,23.56,15.19,22.9,21.68,21.44" style="fill:#00467d"/><path d="M292.13,181c1.57,2,11.74-5.54,16.76-14.19,3.26-5.62,2.88-5.75,2.88-5.75q5.89-13.43,7.38-16.38c6.89-14.68,12.32-25,16-25.52s3.94,4.61,4.3,7.36,2.18,17.89,3.33,22.73C346.71,164,352.26,167,356,169.67c5.1,3.62,11.34,3.62,19.37,2.93,5.19-.45,15.06-5.23,15.36-7.21.1-.61-21.48-.17-28-10.32-7-11-7.13-48.83-7.9-54.82s-3.94-12.38-8.53-12.38c-1.48,0-5.61.7-8.73,5.4-3.78,4-7.07,6.15-9.37,6.29s-2.19-.25-2.19-.25c-.33-6.09-.2-4.39-.36-10.3-1.15-7.7-4.36-11.27-8.91-11.25s-6-.12-7.62.24c1.71,12.78,1.06,12.4-3,40.34-4.63,32.21-16,60.19-14.06,62.69" style="fill:#00467d"/><path d="M412.16,162c-8.45-4.61-7.65-25.33,6.61-48.46,9.78-15.86,18.76-18.17,20.89-16.73,3.5,2.37,3.39,11.94-1.6,30.29s-17.22,39.64-25.9,34.9m7.93,14.14c8.45.58,17.47-9.92,23.78-25.1s5.43-51.28,5.43-54.26a25.72,25.72,0,0,1,.26-4.73q20.91-3.35,34.18-9.47l-4-9.89s-34.93,8-39.33,3.93-8.45-7.5-10.56-4-21,28.21-25.63,42.12c-7.93,23.94-5.09,39.12-1.59,47.59,3.7,8.94,6.43,13.1,17.44,13.85" style="fill:#00467d"/><path d="M542.36,179.43c1.89,6.14,3.7,7.79,7.63,7.79q7.62,0,15.75-16.39c22.78-37.82,25-47.89,32.47-46.74,6.24,1,5.5,17.74,6.88,30.18,2.55,22.95,24.87,26.42,36,18.78,4.26-2.93,7-8.35,7-8.35s-15.26,2.44-22.61-2.78-9.09-12.85-9.55-23.06c-.65-14.15-4.15-35.37-12.76-35.72-6.56-.26-9.8,4.35-16.18,14.37-8.66,15.5-15,26.78-29.3,25-1.87-13.28-.81-30.64-.81-24.91-.33-8.59-1.39-21.77-4.41-25.79-5.38-7.14-15.17-6.42-23.45,2.36-6.62,5.19-8.6,17-19.75,14.26,0,0,0-10.44-.09-11.94-.4-6.59-2.23-17.73-8.6-17.73h-7c-.16,9.13.81,25.8-1.88,44.51-2.24,26.11-17.84,55-15.3,56.7,3.19,1.74,12.72-7.65,17.82-15.65,5.2-8.17,11.33-20.67,19.77-33.05,12.11-17.73,16.25-26.43,21-26.43s4.14,5.76,4.14,17c0,4.84,1.33,51.36,3.21,57.51" style="fill:#00467d"/><path d="M698.14,185.16q.65-8.83-8.27-15.26a31.5,31.5,0,0,0-16.32-6.52q-6.62-.57-7.29,8.8-.74,10.19,31.88,13" style="fill:#00467d"/><path d="M106.24,200.55q4.68,0,13.54-15,16.23-27.67,16.48-27.94c6.89-10,13.21-15.38,18.94-15,7,.41,7.79,6.11,13,13.9,7.51,11.13,12.8,20.81,17,26l7.13-16.56c-5.22-6.53-4-4.39-11.94-15.3s-11.93-19.41-11.93-25.5c0-5.18,15.34-27,29-39.57a145.37,145.37,0,0,0,15.19-16.27l-3.83-3.63c-.26-.06-4.91,3.67-11.62,9-16.56,13.08-30.92,34.68-33.38,37-3.61-2.51-8.74-10.59-13.82-22.5s-8.35-19.8-13.29-21.9q-5.66,0-5.66,7.25,0,8.61,8.12,26.06c2.18,4.69,11,21.31,9.36,26.11-2.3,6.68-24.72,26.16-27.32,30q-19.19,23.37-19.19,36.54,0,7.24,4.18,7.25" style="fill:#00467d"/></g></g></g></svg>