 <svg version="1.0" id="Layer_1" xmlns="http://www.w3.org/2000/svg" xmlns:xlink="http://www.w3.org/1999/xlink" x="0px" y="0px"
	 viewBox="0 0 20.02 20.02" style="enable-background:new 0 0 20.02 20.02;" xml:space="preserve">
    <style type="text/css">
        .st0{fill:#FFFFFF;}
        .st1{fill:#BFBEB8;}
    </style>
    <path class="st0" d="M12.93,20.02H7.09c-3.9,0-7.09-3.19-7.09-7.09V7.09C0,3.19,3.19,0,7.09,0h5.84c3.9,0,7.09,3.19,7.09,7.09v5.84
        C20.02,16.83,16.83,20.02,12.93,20.02z"/>
    <path class="st1" d="M11.79,10.01l2.67-2.67c0.45-0.45,0.45-1.19,0-1.65l-0.13-0.13c-0.45-0.45-1.19-0.45-1.65,0l-2.67,2.67
        L7.33,5.56c-0.45-0.45-1.19-0.45-1.65,0L5.56,5.69c-0.45,0.45-0.45,1.19,0,1.65l2.67,2.67l-2.67,2.67c-0.45,0.45-0.45,1.19,0,1.65
        l0.13,0.13c0.45,0.45,1.19,0.45,1.65,0l2.67-2.67l2.67,2.67c0.45,0.45,1.19,0.45,1.65,0l0.13-0.13c0.45-0.45,0.45-1.19,0-1.65
        L11.79,10.01z"/>
</svg>